<svg width="61" height="60" viewBox="0 0 61 60" fill="none" xmlns="http://www.w3.org/2000/svg">
<path d="M15.8333 59L30.3333 59L43.3333 59C52.1698 59 59.3333 51.8366 59.3333 43L59.3333 17C59.3333 8.16344 52.1698 0.999999 43.3333 0.999999L17.3333 0.999996C8.4967 0.999996 1.33326 8.16344 1.33326 17L1.33325 30L1.33325 44.5" stroke="#33BC77" stroke-width="1.5" stroke-linecap="round"/>
<path d="M1.33325 29L1.33325 44V44C1.33325 52.2843 8.04898 59 16.3333 59L31.3333 59" stroke="url(#paint0_radial_3966_11400)" stroke-width="1.5" stroke-linecap="round"/>
<path d="M2.33325 14L30.8333 14L59.3333 14" stroke="url(#paint1_linear_3966_11400)" stroke-width="2" stroke-linecap="round" stroke-linejoin="round"/>
<circle cx="33.8333" cy="7.5" r="2" fill="#33BC77" fill-opacity="0.2" stroke="#33BC77"/>
<circle cx="40.8333" cy="7.5" r="2" fill="#33BC77" fill-opacity="0.2" stroke="#33BC77"/>
<circle cx="47.8333" cy="7.5" r="2" fill="#33BC77" fill-opacity="0.2" stroke="#33BC77"/>
<rect x="8" y="22" width="12" height="27" rx="4" fill="#33BC77" fill-opacity="0.3" stroke="#33BC77" stroke-width="1.5" stroke-linejoin="round"/>
<path d="M27.3333 25H35.3333H43.3333" stroke="url(#paint2_linear_3966_11400)" stroke-width="1.5" stroke-linecap="round" stroke-linejoin="round"/>
<path d="M27.3333 33H34.8333H42.3333" stroke="url(#paint3_linear_3966_11400)" stroke-width="1.5" stroke-linecap="round" stroke-linejoin="round"/>
<path d="M27.3333 41H30.3333H33.3333" stroke="url(#paint4_linear_3966_11400)" stroke-width="1.5" stroke-linecap="round" stroke-linejoin="round"/>
<path d="M52.3333 49L41.3333 49L30.3333 49" stroke="url(#paint5_linear_3966_11400)" stroke-width="1.5" stroke-linecap="round" stroke-linejoin="round"/>
<path d="M48.3333 25L50.3333 25L52.3333 25" stroke="url(#paint6_linear_3966_11400)" stroke-width="1.5" stroke-linecap="round" stroke-linejoin="round"/>
<path d="M46.3333 33L49.3333 33L52.3333 33" stroke="url(#paint7_linear_3966_11400)" stroke-width="1.5" stroke-linecap="round" stroke-linejoin="round"/>
<path d="M34.3333 41L43.3333 41L52.3333 41" stroke="url(#paint8_linear_3966_11400)" stroke-width="1.5" stroke-linecap="round" stroke-linejoin="round"/>
<path d="M29.3333 49H28.3333H27.3333" stroke="url(#paint9_linear_3966_11400)" stroke-width="2" stroke-linecap="round" stroke-linejoin="round"/>
<path d="M27 49L36.8025 29.8008L42.4039 34.2806L50.806 15.7213M44.368 17.7445L51.0551 15L54 21.232" stroke="#33BC77" stroke-width="1.5" stroke-linecap="round" stroke-linejoin="round"/>
<defs>
<radialGradient id="paint0_radial_3966_11400" cx="0" cy="0" r="1" gradientUnits="userSpaceOnUse" gradientTransform="translate(16.8332 58.5) rotate(-136.848) scale(21.9317 18.2899)">
<stop stop-color="#A866FC"/>
<stop offset="0.286458" stop-color="#33BC77"/>
<stop offset="0.875" stop-color="#33BC77" stop-opacity="0"/>
</radialGradient>
<linearGradient id="paint1_linear_3966_11400" x1="46.7933" y1="15" x2="-2.22675" y2="15" gradientUnits="userSpaceOnUse">
<stop stop-color="#33BC77" stop-opacity="0"/>
<stop offset="0.84375" stop-color="#33BC77"/>
</linearGradient>
<linearGradient id="paint2_linear_3966_11400" x1="27.3333" y1="25" x2="43.3333" y2="25" gradientUnits="userSpaceOnUse">
<stop stop-color="#33BC77"/>
<stop offset="1" stop-color="#33BC77" stop-opacity="0"/>
</linearGradient>
<linearGradient id="paint3_linear_3966_11400" x1="27.3333" y1="33" x2="42.3333" y2="33" gradientUnits="userSpaceOnUse">
<stop stop-color="#33BC77"/>
<stop offset="1" stop-color="#33BC77" stop-opacity="0"/>
</linearGradient>
<linearGradient id="paint4_linear_3966_11400" x1="27.3333" y1="41" x2="33.3333" y2="41" gradientUnits="userSpaceOnUse">
<stop stop-color="#33BC77"/>
<stop offset="1" stop-color="#33BC77" stop-opacity="0"/>
</linearGradient>
<linearGradient id="paint5_linear_3966_11400" x1="52.3333" y1="49" x2="30.3333" y2="49" gradientUnits="userSpaceOnUse">
<stop offset="0.481797" stop-color="#33BC77"/>
<stop offset="0.856217" stop-color="#33BC77" stop-opacity="0.102041"/>
<stop offset="1" stop-color="#33BC77" stop-opacity="0"/>
</linearGradient>
<linearGradient id="paint6_linear_3966_11400" x1="48.3333" y1="25" x2="52.3333" y2="25" gradientUnits="userSpaceOnUse">
<stop offset="0.151042" stop-color="#33BC77" stop-opacity="0"/>
<stop offset="1" stop-color="#33BC77" stop-opacity="0.4"/>
</linearGradient>
<linearGradient id="paint7_linear_3966_11400" x1="46.3333" y1="33" x2="52.3333" y2="33" gradientUnits="userSpaceOnUse">
<stop stop-color="#33BC77" stop-opacity="0"/>
<stop offset="1" stop-color="#33BC77"/>
</linearGradient>
<linearGradient id="paint8_linear_3966_11400" x1="34.3333" y1="41" x2="52.3333" y2="41" gradientUnits="userSpaceOnUse">
<stop stop-color="#33BC77" stop-opacity="0"/>
<stop offset="0.598123" stop-color="#33BC77"/>
</linearGradient>
<linearGradient id="paint9_linear_3966_11400" x1="29.3333" y1="49" x2="27.3333" y2="49" gradientUnits="userSpaceOnUse">
<stop stop-color="#33BC77" stop-opacity="0"/>
<stop offset="1" stop-color="#33BC77" stop-opacity="0.4"/>
</linearGradient>
</defs>
</svg>
