<svg width="60" height="60" viewBox="0 0 60 60" fill="none" xmlns="http://www.w3.org/2000/svg">
<path d="M30 59H17C8.16344 59 1 51.8366 1 43V17C1 8.16345 8.16344 1 17 1H43C51.8366 1 59 8.16344 59 17V30" stroke="#33BC77" stroke-width="1.5" stroke-linecap="round"/>
<path d="M29 59H44V59C52.2843 59 59 52.2843 59 44V29" stroke="url(#paint0_radial_3966_11306)" stroke-width="1.5" stroke-linecap="round"/>
<path d="M31.4492 40V28.8829V18.2542C31.4492 13.8359 27.8674 10.2542 23.4492 10.2542H17.0763C12.658 10.2542 9.07629 13.8359 9.07629 18.2542V41.9152C9.07629 46.3335 12.658 49.9152 17.0763 49.9152H20.2627" stroke="#33BC77" stroke-width="1.5" stroke-linecap="round" stroke-linejoin="round"/>
<path d="M31.4491 39.9999V41.9152C31.4491 46.3335 27.8674 49.9152 23.4491 49.9152H20.2627" stroke="url(#paint1_linear_3966_11306)" stroke-width="1.5" stroke-linecap="round" stroke-linejoin="round"/>
<rect x="38.9237" y="10.0848" width="12" height="20" rx="4" fill="#33BC77" fill-opacity="0.2" stroke="#33BC77" stroke-width="1.5" stroke-linejoin="round"/>
<path d="M28.5032 12.3516L26.7106 16.2507M12.0749 48.0848L13.9505 44.0052M15.8261 39.9256L17.5479 36.1804M19.3313 32.3015L21.1761 28.2888M22.9902 24.343L24.8658 20.2634" stroke="#33BC77" stroke-width="1.5"/>
<path d="M41.6895 40.6902L39.1406 48.0848H37.5996L40.8105 39.5535H41.7949L41.6895 40.6902ZM43.8223 48.0848L41.2676 40.6902L41.1562 39.5535H42.1465L45.3691 48.0848H43.8223ZM43.6992 44.9207V46.0867H39.0586V44.9207H43.6992ZM49.7578 46.8133V43.7899C49.7578 43.5633 49.7168 43.368 49.6348 43.2039C49.5527 43.0399 49.4277 42.9129 49.2598 42.8231C49.0957 42.7332 48.8887 42.6883 48.6387 42.6883C48.4082 42.6883 48.209 42.7274 48.041 42.8055C47.873 42.8836 47.7422 42.9891 47.6484 43.1219C47.5547 43.2547 47.5078 43.4051 47.5078 43.5731H46.1016C46.1016 43.3231 46.1621 43.0809 46.2832 42.8465C46.4043 42.6121 46.5801 42.4031 46.8105 42.2195C47.041 42.0359 47.3164 41.8914 47.6367 41.7859C47.957 41.6805 48.3164 41.6277 48.7148 41.6277C49.1914 41.6277 49.6133 41.7078 49.9805 41.868C50.3516 42.0281 50.6426 42.2703 50.8535 42.5945C51.0684 42.9149 51.1758 43.3172 51.1758 43.8016V46.6199C51.1758 46.909 51.1953 47.1688 51.2344 47.3992C51.2773 47.6258 51.3379 47.8231 51.416 47.991V48.0848H49.9688C49.9023 47.9324 49.8496 47.7391 49.8105 47.5047C49.7754 47.2664 49.7578 47.0359 49.7578 46.8133ZM49.9629 44.2293L49.9746 45.1024H48.9609C48.6992 45.1024 48.4688 45.1277 48.2695 45.1785C48.0703 45.2254 47.9043 45.2957 47.7715 45.3895C47.6387 45.4832 47.5391 45.5965 47.4727 45.7293C47.4062 45.8621 47.373 46.0125 47.373 46.1805C47.373 46.3484 47.4121 46.5027 47.4902 46.6434C47.5684 46.7801 47.6816 46.8875 47.8301 46.9656C47.9824 47.0438 48.166 47.0828 48.3809 47.0828C48.6699 47.0828 48.9219 47.0242 49.1367 46.907C49.3555 46.7859 49.5273 46.6395 49.6523 46.4676C49.7773 46.2918 49.8438 46.1258 49.8516 45.9695L50.3086 46.5965C50.2617 46.7567 50.1816 46.9285 50.0684 47.1121C49.9551 47.2957 49.8066 47.4715 49.623 47.6395C49.4434 47.8035 49.2266 47.9383 48.9727 48.0438C48.7227 48.1492 48.4336 48.202 48.1055 48.202C47.6914 48.202 47.3223 48.1199 46.998 47.9559C46.6738 47.7879 46.4199 47.5633 46.2363 47.282C46.0527 46.9969 45.9609 46.6746 45.9609 46.3152C45.9609 45.9793 46.0234 45.6824 46.1484 45.4246C46.2773 45.1629 46.4648 44.9442 46.7109 44.7684C46.9609 44.5926 47.2656 44.4598 47.625 44.3699C47.9844 44.2762 48.3945 44.2293 48.8555 44.2293H49.9629Z" fill="#33BC77"/>
<defs>
<radialGradient id="paint0_radial_3966_11306" cx="0" cy="0" r="1" gradientUnits="userSpaceOnUse" gradientTransform="translate(29 59) rotate(-30.0184) scale(51.9711 31.9051)">
<stop stop-color="#33BC77"/>
<stop offset="0.432292" stop-color="#33BC77" stop-opacity="0.5"/>
<stop offset="0.776042" stop-color="#33BC77" stop-opacity="0"/>
</radialGradient>
<linearGradient id="paint1_linear_3966_11306" x1="23.4237" y1="48.5848" x2="29.4237" y2="41.5848" gradientUnits="userSpaceOnUse">
<stop stop-color="#33BC77"/>
<stop offset="1" stop-color="#33BC77" stop-opacity="0"/>
</linearGradient>
</defs>
</svg>
