<svg width="61" height="60" viewBox="0 0 61 60" fill="none" xmlns="http://www.w3.org/2000/svg">
<path d="M30 38C25.5817 38 22 34.4183 22 30C22 25.5817 25.5817 22 30 22C34.4183 22 38 25.5817 38 30C38 34.4183 34.4183 38 30 38Z" fill="#33BC77" fill-opacity="0.2"/>
<path d="M15.3363 22.6721C15.7821 21.7662 15.7248 20.6677 15.0821 19.8911C14.3156 18.9649 14.3768 17.6026 15.2232 16.7499L16.9731 14.987C17.8315 14.1223 19.2028 14.0598 20.1351 14.8429C20.9104 15.4941 22.0053 15.557 22.9142 15.1147C23.517 14.8213 24.1403 14.564 24.7814 14.3456C25.75 14.0155 26.4954 13.1834 26.5877 12.1575C26.6977 10.9357 27.7145 10 28.9324 10L31.3212 10C32.5634 10 33.6007 10.9544 33.7129 12.2008C33.8059 13.2348 34.5502 14.0769 35.5215 14.4239C36.1101 14.6342 36.6833 14.8774 37.2388 15.1512C38.1772 15.6138 39.3118 15.5541 40.1141 14.8802C41.0718 14.0758 42.4804 14.14 43.3621 15.0282L44.9871 16.6653C45.8809 17.5658 45.9455 19.0043 45.1361 19.9823C44.4636 20.795 44.3988 21.9423 44.8508 22.8973C45.1021 23.4282 45.3261 23.9747 45.521 24.535C45.87 25.5385 46.724 26.3098 47.7751 26.4059C49.0351 26.521 50 27.5851 50 28.8597L50 31.1403C50 32.4148 49.0351 33.479 47.7751 33.5941C46.724 33.6902 45.87 34.4615 45.521 35.4649C45.3262 36.0251 45.1022 36.5716 44.851 37.1023C44.3989 38.0574 44.4638 39.2047 45.1363 40.0173C45.9458 40.9954 45.8811 42.434 44.9873 43.3344L43.3622 44.9715C42.4806 45.8597 41.0721 45.9239 40.1144 45.1196C39.3121 44.4457 38.1775 44.386 37.2392 44.8486C36.6828 45.1229 36.1087 45.3664 35.519 45.577C34.5477 45.9238 33.8035 46.7658 33.7104 47.7997C33.5982 49.0458 32.5612 50 31.3192 50L28.9304 50C27.7123 50 26.6952 49.0641 26.5852 47.842C26.4929 46.816 25.7475 45.9838 24.7789 45.6536C24.1388 45.4353 23.5165 45.1784 22.9146 44.8855C22.0057 44.4432 20.9108 44.5062 20.1355 45.1573C19.203 45.9405 17.8317 45.8779 16.9733 45.0132L15.2235 43.2504C14.377 42.3977 14.3159 41.0355 15.0824 40.1092C15.7251 39.3326 15.7822 38.2341 15.3365 37.3282" stroke="#33BC77" stroke-width="1.5" stroke-linecap="round"/>
<path d="M15 22.9999C14.6524 23.9686 13.3289 26.2571 12.26 26.3496C10.9801 26.4603 10 27.484 10 28.7101L10 31.2899C10 32.5159 10.9801 33.5397 12.26 33.6504C13.3289 33.7429 14.6524 36.0312 15 36.9999" stroke="url(#paint0_radial_3966_11346)" stroke-width="1.5" stroke-linecap="round"/>
<path d="M30.3333 59L43.3333 59C52.1698 59 59.3333 51.8366 59.3333 43L59.3333 17C59.3333 8.16345 52.1698 1 43.3333 1L17.3333 1C8.4967 1 1.33325 8.16345 1.33325 17L1.33325 30" stroke="#33BC77" stroke-width="1.5" stroke-linecap="round"/>
<path d="M30.3333 59L16.3333 59V59C8.04898 59 1.33325 52.2843 1.33325 44L1.33325 29" stroke="url(#paint1_radial_3966_11346)" stroke-width="1.5" stroke-linecap="round"/>
<path d="M26.3333 23C26.8333 22.6667 28.2333 22 29.8333 22C31.4333 22 32.8333 22.6667 33.3333 23" stroke="#33BC77" stroke-width="1.5" stroke-linecap="round"/>
<path d="M33.3333 37C32.8333 37.3333 31.4333 38 29.8333 38C28.2333 38 26.8333 37.3333 26.3333 37" stroke="#33BC77" stroke-width="1.5" stroke-linecap="round"/>
<path d="M37.3333 27C37.6666 27.4286 38.3333 28.6286 38.3333 30C38.3333 31.3714 37.6666 32.5714 37.3333 33" stroke="#33BC77" stroke-width="1.5" stroke-linecap="round"/>
<path d="M22.3333 33C21.9999 32.5714 21.3333 31.3714 21.3333 30C21.3333 28.6286 21.9999 27.4286 22.3333 27" stroke="#33BC77" stroke-width="1.5" stroke-linecap="round"/>
<defs>
<radialGradient id="paint0_radial_3966_11346" cx="0" cy="0" r="1" gradientUnits="userSpaceOnUse" gradientTransform="translate(9.83333 30.5) scale(5.5 8.65693)">
<stop offset="0.505208" stop-color="#33BC77"/>
<stop offset="1" stop-color="#33BC77" stop-opacity="0"/>
</radialGradient>
<radialGradient id="paint1_radial_3966_11346" cx="0" cy="0" r="1" gradientUnits="userSpaceOnUse" gradientTransform="translate(31.3333 59) rotate(-147.892) scale(51.8239 31.8147)">
<stop stop-color="#33BC77"/>
<stop offset="0.552422" stop-color="#33BC77"/>
<stop offset="0.776042" stop-color="#33BC77" stop-opacity="0"/>
</radialGradient>
</defs>
</svg>
